HIERARCHY
ROOT Hips
{
	OFFSET 0.000000 83.214638 0.000000
	CHANNELS 6 Xposition Yposition Zposition Xrotation Yrotation Zrotation
	JOINT Pelvis
	{
		OFFSET 0.000000 0.000000 0.000000
		CHANNELS 3 Xrotation Yrotation Zrotation
		JOINT LeftUpLeg
		{
			OFFSET 8.479700 -4.795502 -0.379100
			CHANNELS 3 Xrotation Yrotation Zrotation
			JOINT LeftLeg
			{
				OFFSET 0.024144 -32.555107 0.112900
				CHANNELS 3 Xrotation Yrotation Zrotation
				JOINT LeftFoot
				{
					OFFSET -0.024144 -32.638630 -3.012600
					CHANNELS 3 Xrotation Yrotation Zrotation
					JOINT LeftToeBase
					{
						OFFSET 0.970200 -13.225400 11.864200
						CHANNELS 3 Xrotation Yrotation Zrotation
						End Site
						{
							OFFSET 0.000000 12.319262 0.000000
						}
					}
					JOINT LFootTongue
					{
						OFFSET 1.142400 -1.059800 6.665200
						CHANNELS 3 Xrotation Yrotation Zrotation
						End Site
						{
							OFFSET 0.000000 12.319262 0.000000
						}
					}
				}
				JOINT LeftPantLeg
				{
					OFFSET 0.918482 -16.533964 -2.284700
					CHANNELS 3 Xrotation Yrotation Zrotation
					End Site
					{
						OFFSET 0.350399 24.744368 0.000000
					}
				}
			}
		}
		JOINT RightUpLeg
		{
			OFFSET -8.479700 -4.795502 -0.379100
			CHANNELS 3 Xrotation Yrotation Zrotation
			JOINT RightLeg
			{
				OFFSET -0.023144 -32.555092 0.112900
				CHANNELS 3 Xrotation Yrotation Zrotation
				JOINT RightFoot
				{
					OFFSET 0.023144 -32.638641 -3.012700
					CHANNELS 3 Xrotation Yrotation Zrotation
					JOINT RightToeBase
					{
						OFFSET -0.970200 -13.225400 11.864200
						CHANNELS 3 Xrotation Yrotation Zrotation
						End Site
						{
							OFFSET 0.000000 12.319244 0.000000
						}
					}
					JOINT RFootTongue
					{
						OFFSET -1.142200 -1.059800 6.665200
						CHANNELS 3 Xrotation Yrotation Zrotation
						End Site
						{
							OFFSET 0.000000 12.319243 0.000000
						}
					}
				}
				JOINT RightPantLeg
				{
					OFFSET -0.919482 -16.533978 -2.284800
					CHANNELS 3 Xrotation Yrotation Zrotation
					End Site
					{
						OFFSET -0.350400 24.744419 0.000000
					}
				}
			}
		}
	}
	JOINT Spine
	{
		OFFSET 0.000000 7.722000 1.166200
		CHANNELS 3 Xrotation Yrotation Zrotation
		JOINT Spine1
		{
			OFFSET 0.000000 12.024101 0.248800
			CHANNELS 3 Xrotation Yrotation Zrotation
			JOINT Spine2
			{
				OFFSET 0.000000 11.502998 -0.491200
				CHANNELS 3 Xrotation Yrotation Zrotation
				JOINT Neck
				{
					OFFSET 0.000000 18.430702 -3.123100
					CHANNELS 3 Xrotation Yrotation Zrotation
					JOINT Head
					{
						OFFSET 0.000000 9.051102 1.034000
						CHANNELS 3 Xrotation Yrotation Zrotation
						JOINT HairB
						{
							OFFSET 0.208400 24.786102 24.822300
							CHANNELS 3 Xrotation Yrotation Zrotation
							End Site
							{
								OFFSET 0.000000 32.263779 0.000000
							}
						}
						JOINT HairA
						{
							OFFSET -7.081100 24.428299 23.196600
							CHANNELS 3 Xrotation Yrotation Zrotation
							End Site
							{
								OFFSET 0.000000 32.263779 0.000000
							}
						}
						JOINT Hat
						{
							OFFSET 16.728800 15.048294 -15.439601
							CHANNELS 3 Xrotation Yrotation Zrotation
							End Site
							{
								OFFSET 0.000000 32.263779 0.000000
							}
						}
					}
				}
				JOINT LeftShoulder
				{
					OFFSET 6.197800 13.665199 -4.064700
					CHANNELS 3 Xrotation Yrotation Zrotation
					JOINT LeftArm
					{
						OFFSET 7.778100 -0.187103 -1.709300
						CHANNELS 3 Xrotation Yrotation Zrotation
						JOINT LeftForeArm
						{
							OFFSET 22.049376 0.000000 0.000000
							CHANNELS 3 Xrotation Yrotation Zrotation
							JOINT LeftHand
							{
								OFFSET 23.009392 0.000000 0.000000
								CHANNELS 3 Xrotation Yrotation Zrotation
								JOINT LeftHandThumb1
								{
									OFFSET 3.507191 -2.063065 3.133727
									CHANNELS 3 Xrotation Yrotation Zrotation
									JOINT LeftHandThumb2
									{
										OFFSET 3.101337 -1.790558 1.790558
										CHANNELS 3 Xrotation Yrotation Zrotation
										JOINT LeftHandThumb3
										{
											OFFSET 3.058640 -1.765907 1.765906
											CHANNELS 3 Xrotation Yrotation Zrotation
											End Site
											{
												OFFSET -0.415260 3.926476 -0.049563
											}
										}
									}
								}
								JOINT LeftHandIndex1
								{
									OFFSET 11.334419 -0.901459 3.706815
									CHANNELS 3 Xrotation Yrotation Zrotation
									JOINT LeftHandIndex2
									{
										OFFSET 3.283112 0.000000 0.000000
										CHANNELS 3 Xrotation Yrotation Zrotation
										JOINT LeftHandIndex3
										{
											OFFSET 3.323853 0.000000 0.000000
											CHANNELS 3 Xrotation Yrotation Zrotation
											End Site
											{
												OFFSET -1.135597 3.097809 0.402452
											}
										}
									}
								}
								JOINT LeftHandMiddle1
								{
									OFFSET 11.335861 0.000000 0.000000
									CHANNELS 3 Xrotation Yrotation Zrotation
									JOINT LeftHandMiddle2
									{
										OFFSET 3.410492 0.000000 0.000000
										CHANNELS 3 Xrotation Yrotation Zrotation
										JOINT LeftHandMiddle3
										{
											OFFSET 3.312172 0.000000 0.000000
											CHANNELS 3 Xrotation Yrotation Zrotation
											End Site
											{
												OFFSET -1.150200 3.080154 0.400270
											}
										}
									}
								}
								JOINT LeftHandRing1
								{
									OFFSET 11.514786 -0.013176 -3.003090
									CHANNELS 3 Xrotation Yrotation Zrotation
									JOINT LeftHandRing2
									{
										OFFSET 3.053307 0.000000 0.000000
										CHANNELS 3 Xrotation Yrotation Zrotation
										JOINT LeftHandRing3
										{
											OFFSET 3.295807 0.000000 0.000000
											CHANNELS 3 Xrotation Yrotation Zrotation
											End Site
											{
												OFFSET -1.281006 3.013344 0.375733
											}
										}
									}
								}
								JOINT LeftHandPinky1
								{
									OFFSET 10.518692 -0.960396 -5.730441
									CHANNELS 3 Xrotation Yrotation Zrotation
									JOINT LeftHandPinky2
									{
										OFFSET 2.861649 0.000000 0.000000
										CHANNELS 3 Xrotation Yrotation Zrotation
										JOINT LeftHandPinky3
										{
											OFFSET 2.863380 0.000000 0.000000
											CHANNELS 3 Xrotation Yrotation Zrotation
											End Site
											{
												OFFSET -0.843597 2.711159 0.369971
											}
										}
									}
								}
							}
							JOINT LSleeve
							{
								OFFSET 6.676277 -0.344902 -1.011730
								CHANNELS 3 Xrotation Yrotation Zrotation
								End Site
								{
									OFFSET 0.000000 14.885353 0.000000
								}
							}
						}
					}
				}
				JOINT RightShoulder
				{
					OFFSET -6.197800 13.665199 -4.064700
					CHANNELS 3 Xrotation Yrotation Zrotation
					JOINT RightArm
					{
						OFFSET -7.778100 -0.187103 -1.709300
						CHANNELS 3 Xrotation Yrotation Zrotation
						JOINT RightForeArm
						{
							OFFSET -22.049376 0.000000 0.000000
							CHANNELS 3 Xrotation Yrotation Zrotation
							JOINT RightHand
							{
								OFFSET -23.009392 0.000000 0.000000
								CHANNELS 3 Xrotation Yrotation Zrotation
								JOINT RightHandThumb1
								{
									OFFSET -3.507191 -2.063065 3.133727
									CHANNELS 3 Xrotation Yrotation Zrotation
									JOINT RightHandThumb2
									{
										OFFSET -3.101337 -1.790558 1.790558
										CHANNELS 3 Xrotation Yrotation Zrotation
										JOINT RightHandThumb3
										{
											OFFSET -3.058640 -1.765907 1.765906
											CHANNELS 3 Xrotation Yrotation Zrotation
											End Site
											{
												OFFSET 0.415260 3.926476 -0.049563
											}
										}
									}
								}
								JOINT RightHandIndex1
								{
									OFFSET -11.334419 -0.901459 3.706815
									CHANNELS 3 Xrotation Yrotation Zrotation
									JOINT RightHandIndex2
									{
										OFFSET -3.283112 0.000000 0.000000
										CHANNELS 3 Xrotation Yrotation Zrotation
										JOINT RightHandIndex3
										{
											OFFSET -3.323853 0.000000 0.000000
											CHANNELS 3 Xrotation Yrotation Zrotation
											End Site
											{
												OFFSET 1.135597 3.097809 0.402452
											}
										}
									}
								}
								JOINT RightHandMiddle1
								{
									OFFSET -11.335861 0.000000 0.000000
									CHANNELS 3 Xrotation Yrotation Zrotation
									JOINT RightHandMiddle2
									{
										OFFSET -3.410492 0.000000 0.000000
										CHANNELS 3 Xrotation Yrotation Zrotation
										JOINT RightHandMiddle3
										{
											OFFSET -3.312172 0.000000 0.000000
											CHANNELS 3 Xrotation Yrotation Zrotation
											End Site
											{
												OFFSET 1.150200 3.080154 0.400270
											}
										}
									}
								}
								JOINT RightHandRing1
								{
									OFFSET -11.514786 -0.013176 -3.003090
									CHANNELS 3 Xrotation Yrotation Zrotation
									JOINT RightHandRing2
									{
										OFFSET -3.053307 0.000000 0.000000
										CHANNELS 3 Xrotation Yrotation Zrotation
										JOINT RightHandRing3
										{
											OFFSET -3.295807 0.000000 0.000000
											CHANNELS 3 Xrotation Yrotation Zrotation
											End Site
											{
												OFFSET 1.281006 3.013344 0.375733
											}
										}
									}
								}
								JOINT RightHandPinky1
								{
									OFFSET -10.518692 -0.960396 -5.730441
									CHANNELS 3 Xrotation Yrotation Zrotation
									JOINT RightHandPinky2
									{
										OFFSET -2.861649 0.000000 0.000000
										CHANNELS 3 Xrotation Yrotation Zrotation
										JOINT RightHandPinky3
										{
											OFFSET -2.863380 0.000000 0.000000
											CHANNELS 3 Xrotation Yrotation Zrotation
											End Site
											{
												OFFSET 0.843597 2.711159 0.369971
											}
										}
									}
								}
							}
							JOINT RSleeve
							{
								OFFSET -6.676277 -0.344902 -1.011730
								CHANNELS 3 Xrotation Yrotation Zrotation
								End Site
								{
									OFFSET 0.000000 14.885353 0.000000
								}
							}
						}
					}
				}
				JOINT Backpack
				{
					OFFSET 0.000000 -2.471497 36.677502
					CHANNELS 3 Xrotation Yrotation Zrotation
					End Site
					{
						OFFSET 0.000000 20.427315 0.000000
					}
				}
				JOINT Hood
				{
					OFFSET 0.000000 18.754097 -10.431000
					CHANNELS 3 Xrotation Yrotation Zrotation
					JOINT Hood1
					{
						OFFSET 0.000000 -5.011002 -7.685901
						CHANNELS 3 Xrotation Yrotation Zrotation
						End Site
						{
							OFFSET 0.000000 9.175140 0.000000
						}
					}
				}
				JOINT LHoodieString
				{
					OFFSET 5.250500 16.397697 3.089900
					CHANNELS 3 Xrotation Yrotation Zrotation
					JOINT LHoodieString1
					{
						OFFSET 0.257700 -6.364304 3.694600
						CHANNELS 3 Xrotation Yrotation Zrotation
						JOINT LHoodieString2
						{
							OFFSET 0.000000 -9.643799 2.679100
							CHANNELS 3 Xrotation Yrotation Zrotation
							End Site
							{
								OFFSET 0.000000 10.009018 0.000000
							}
						}
					}
				}
				JOINT RHoodieString
				{
					OFFSET -5.250500 16.397697 3.089900
					CHANNELS 3 Xrotation Yrotation Zrotation
					JOINT RHoodieString1
					{
						OFFSET -0.257700 -6.364304 3.694600
						CHANNELS 3 Xrotation Yrotation Zrotation
						JOINT RHoodieString2
						{
							OFFSET 0.000000 -9.643799 2.679100
							CHANNELS 3 Xrotation Yrotation Zrotation
							End Site
							{
								OFFSET 0.000000 10.009018 0.000000
							}
						}
					}
				}
			}
			JOINT LBackpack_Strap
			{
				OFFSET 15.223200 -7.719803 -6.610900
				CHANNELS 3 Xrotation Yrotation Zrotation
				End Site
				{
					OFFSET 0.000000 16.040596 0.000000
				}
			}
			JOINT RBackpack_Strap
			{
				OFFSET -15.223000 -7.719803 -6.610900
				CHANNELS 3 Xrotation Yrotation Zrotation
				End Site
				{
					OFFSET 0.000000 16.040596 0.000000
				}
			}
		}
	}
	JOINT BoyFacialAnim_Joint
	{
		OFFSET 1.000000 -82.208099 -1.550900
		CHANNELS 3 Xrotation Yrotation Zrotation
		End Site
		{
			OFFSET 0.000000 30.012791 0.000000
		}
	}
}
MOTION
Frames: 4
Frame Time: 0.016667
0.230851 48.133774 3.654503 10.252885 1.253773 2.040325 0.000000 0.000000 -0.000000 -101.904032 -6.896838 9.078247 85.934257 7.638686 0.205328 7.245061 -7.264244 -7.801443 0.000000 0.000001 0.000000 0.000000 0.000001 0.000000 0.000000 0.000001 0.000001 -103.165479 11.096167 -7.219866 86.627358 -6.582021 -1.835634 8.309659 0.307751 9.223586 0.000000 0.000000 -0.000000 0.000000 0.000000 -0.000000 0.000001 -0.000001 0.000000 6.860167 -1.814880 -1.468222 12.577068 -1.034805 -1.095898 12.570155 -1.077110 -1.099539 -0.427489 -0.653576 -0.369724 -52.699868 2.125733 -7.829018 -0.000001 -0.000000 -0.000000 -0.000001 -0.000000 -0.000000 -0.000001 -0.000000 -0.000000 2.038146 -12.501281 5.547275 -60.008485 -29.861690 -11.556441 0.000034 -114.301228 0.000040 -11.910103 -28.831301 34.008048 20.858797 4.366377 2.192821 0.280541 11.989279 -27.457519 0.000000 -0.000001 -0.000001 0.425211 1.444480 -13.828674 0.836199 3.018175 -30.964967 -0.000001 0.000000 -0.000002 0.528392 5.942703 -8.228446 0.952410 3.203614 -33.106118 -0.000002 -0.000000 0.000000 0.930025 7.386339 -10.768678 1.068073 3.374090 -35.122158 -0.000002 0.000001 -0.000005 0.270937 7.579820 -14.433277 0.945465 3.192968 -32.981669 0.000000 0.000001 -0.000002 0.000000 -0.000000 0.000001 1.433084 10.850709 -3.496002 -73.306870 34.141244 27.922104 0.000029 117.257819 -0.000032 11.925576 3.902116 -19.975996 0.467971 9.476107 18.594367 2.135803 -23.166518 17.501142 0.000000 0.000001 -0.000000 2.448392 2.152563 1.738847 0.603754 -2.295188 29.472492 -0.000003 0.000001 0.000005 -0.030328 -3.619541 -3.130902 1.500617 -3.425972 47.297755 0.000002 -0.000002 -0.000000 0.239646 -6.342802 2.621624 0.613279 -2.311948 29.709472 -0.000002 0.000000 0.000000 -11.640124 -11.617295 13.904427 0.284063 -1.603175 20.094435 -0.000001 0.000001 0.000002 0.000001 0.000000 -0.000000 -0.000002 -0.000000 0.000000 -0.000002 -0.000000 0.000000 -0.000002 -0.000000 0.000000 -0.000002 -0.000000 0.000000 -0.000002 -0.000000 -0.000000 -0.000001 -0.000000 0.000000 -0.000002 -0.000000 0.000000 -0.000002 -0.000000 -0.000000 -0.000001 -0.000000 0.000000 -0.000001 0.000000 -0.000000 -0.000001 0.000000 -0.000000 0.000000 0.000000 -0.000000 
0.244065 48.081924 3.605373 10.522844 1.358167 2.042507 0.000001 -0.000000 -0.000000 -102.280437 -6.848311 8.953170 85.843436 7.672666 0.206459 7.423527 -7.275436 -7.690484 -0.000000 -0.000000 0.000000 -0.000000 -0.000000 0.000000 -0.000000 0.000001 -0.000000 -103.500254 11.216059 -7.217929 86.577388 -6.674948 -1.836121 8.455625 0.326360 9.249556 -0.000000 0.000001 0.000000 -0.000000 0.000001 0.000000 0.000000 0.000000 0.000001 7.085981 -1.778320 -1.465410 12.767368 -1.020628 -1.140127 12.760492 -1.062331 -1.143888 1.301026 -0.746535 -0.517728 -52.329785 1.916441 -7.951302 -0.000001 -0.000000 0.000000 -0.000001 -0.000000 0.000000 -0.000001 -0.000000 0.000000 2.068313 -12.394299 6.151575 -58.624456 -28.929884 -12.183157 -0.000000 -114.948013 -0.000002 -11.192797 -27.755683 33.451155 20.859681 4.363825 2.192663 0.280851 11.988513 -27.457584 0.000000 0.000000 0.000002 0.424907 1.444540 -13.827450 0.836213 3.018196 -30.965223 -0.000001 0.000001 -0.000000 0.528577 5.943469 -8.229854 0.952407 3.203614 -33.106111 -0.000000 -0.000001 0.000002 0.929997 7.386363 -10.768218 1.068072 3.374084 -35.122096 0.000000 0.000000 -0.000000 0.271104 7.580055 -14.432511 0.945451 3.192944 -32.981395 -0.000001 0.000000 -0.000000 0.000000 -0.000001 -0.000001 1.461463 11.134545 -3.330571 -71.860495 33.821669 27.199874 0.000001 117.434475 0.000000 12.138208 3.880012 -18.450885 0.466644 9.475919 18.593614 2.136591 -23.165297 17.504136 0.000002 0.000001 0.000000 2.449273 2.151594 1.737205 0.603714 -2.295122 29.471512 -0.000001 0.000000 0.000002 -0.030353 -3.619689 -3.131641 1.500583 -3.425942 47.297294 -0.000002 -0.000001 -0.000000 0.239632 -6.342697 2.621583 0.613285 -2.311939 29.709441 -0.000001 0.000001 0.000002 -11.640350 -11.617702 13.902620 0.284038 -1.603107 20.093566 -0.000001 0.000000 -0.000003 0.000000 -0.000000 -0.000002 -0.000001 -0.000000 0.000000 -0.000001 -0.000000 0.000000 -0.000001 -0.000000 0.000000 -0.000001 -0.000000 0.000000 -0.000001 -0.000000 -0.000000 0.000001 0.000000 0.000000 -0.000001 -0.000000 0.000000 -0.000001 -0.000000 -0.000000 0.000001 0.000000 0.000000 0.000001 -0.000000 -0.000000 0.000001 -0.000000 -0.000000 0.000001 -0.000000 -0.000000 
0.263674 48.031860 3.583815 10.812134 1.466131 2.072121 -0.000001 -0.000000 0.000000 -102.655558 -6.781435 8.818784 85.802817 7.719155 0.206583 7.533621 -7.282209 -7.649837 0.000000 -0.000000 -0.000000 0.000000 -0.000000 0.000000 0.000001 -0.000001 0.000001 -103.851872 11.380993 -7.240643 86.581179 -6.731169 -1.836519 8.549004 0.340645 9.294072 0.000000 0.000001 -0.000000 0.000000 0.000001 -0.000000 -0.000001 0.000000 0.000000 7.323045 -1.735455 -1.468700 12.972731 -0.981566 -1.186087 12.966025 -1.022760 -1.189410 3.122171 -0.859578 -0.692142 -51.579352 1.594024 -8.096119 -0.000000 0.000000 -0.000000 -0.000000 0.000000 -0.000000 -0.000000 0.000000 -0.000000 2.114941 -12.310449 6.918393 -56.643872 -27.956567 -13.096901 0.000001 -115.667696 -0.000002 -10.218824 -26.532478 32.956076 20.860422 4.360996 2.192174 0.281664 11.987412 -27.457775 0.000000 0.000001 0.000004 0.424581 1.444435 -13.825830 0.836220 3.018213 -30.965434 0.000001 0.000000 -0.000005 0.528696 5.944123 -8.230296 0.952403 3.203600 -33.105968 -0.000001 0.000000 -0.000003 0.929938 7.386430 -10.767171 1.068067 3.374069 -35.121946 -0.000001 0.000000 0.000001 0.271302 7.580350 -14.431327 0.945427 3.192907 -32.980989 0.000001 -0.000000 0.000001 -0.000000 -0.000001 -0.000005 1.487709 11.465026 -3.085986 -69.923099 33.437895 26.381901 0.000004 117.615967 0.000004 12.013549 4.096479 -16.866116 0.464865 9.475463 18.592477 2.137320 -23.163716 17.507020 0.000000 0.000001 0.000000 2.450233 2.150668 1.735387 0.603671 -2.295031 29.470309 -0.000000 0.000001 0.000004 -0.030393 -3.619790 -3.132389 1.500528 -3.425895 47.296318 -0.000001 0.000000 0.000002 0.239630 -6.342674 2.621556 0.613271 -2.311938 29.709359 -0.000000 0.000003 0.000003 -11.640428 -11.618180 13.900749 0.284007 -1.603026 20.092420 -0.000000 0.000000 0.000000 0.000000 0.000000 0.000004 -0.000001 0.000000 0.000000 -0.000001 0.000000 0.000000 -0.000001 0.000000 0.000000 -0.000001 0.000000 0.000000 -0.000001 0.000000 -0.000000 -0.000003 -0.000000 0.000000 -0.000001 0.000000 0.000000 -0.000001 0.000000 -0.000000 -0.000003 -0.000000 0.000000 0.000001 0.000000 -0.000000 0.000001 0.000000 -0.000000 -0.000001 -0.000000 0.000000 
0.282349 47.999130 3.585722 11.091108 1.566719 2.108809 0.000000 0.000000 0.000000 -102.975067 -6.715040 8.700874 85.791848 7.762910 0.205619 7.572562 -7.284042 -7.685523 -0.000000 -0.000000 0.000000 -0.000000 -0.000000 -0.000000 0.000001 0.000002 0.000000 -104.161785 11.548633 -7.275127 86.613561 -6.762582 -1.836417 8.581883 0.348307 9.362932 0.000000 0.000000 0.000000 0.000000 0.000000 0.000000 -0.000001 0.000002 -0.000000 7.558678 -1.688786 -1.476605 13.167895 -0.921942 -1.227742 13.161514 -0.962647 -1.229827 4.847743 -0.977132 -0.865298 -50.472352 1.193751 -8.236321 -0.000000 -0.000000 0.000001 -0.000000 -0.000000 0.000001 -0.000000 -0.000000 0.000001 2.167039 -12.215280 7.794458 -54.283232 -27.085342 -14.223969 0.000001 -116.372463 -0.000001 -9.191114 -25.254512 32.508381 20.860984 4.358179 2.190967 0.282794 11.986092 -27.457992 -0.000001 0.000001 -0.000000 0.424234 1.444158 -13.823947 0.836230 3.018225 -30.965571 -0.000000 0.000000 -0.000000 0.528784 5.944705 -8.230384 0.952386 3.203576 -33.105691 -0.000000 -0.000001 -0.000002 0.929856 7.386550 -10.765695 1.068054 3.374062 -35.121823 -0.000000 -0.000000 0.000001 0.271541 7.580721 -14.429898 0.945405 3.192874 -32.980566 0.000002 0.000000 0.000002 -0.000000 -0.000000 -0.000000 1.506033 11.775373 -2.798577 -67.693609 33.040337 25.501044 -0.000003 117.763253 -0.000001 11.410885 4.473168 -15.347888 0.463266 9.474902 18.591048 2.137491 -23.162042 17.507259 0.000000 0.000002 -0.000001 2.451271 2.149761 1.734122 0.603623 -2.294958 29.469155 -0.000001 0.000002 0.000000 -0.030374 -3.619854 -3.131860 1.500466 -3.425829 47.295215 0.000000 -0.000000 0.000003 0.239672 -6.342766 2.622060 0.613279 -2.311938 29.709369 -0.000000 -0.000000 0.000002 -11.640127 -11.619123 13.900471 0.283975 -1.602941 20.091264 -0.000001 -0.000001 -0.000003 -0.000000 -0.000000 -0.000001 0.000002 -0.000000 -0.000000 0.000002 -0.000000 -0.000000 0.000002 -0.000000 -0.000000 0.000002 -0.000000 -0.000000 0.000002 -0.000000 -0.000000 0.000002 -0.000000 -0.000000 0.000002 -0.000000 -0.000000 0.000002 -0.000000 -0.000000 0.000002 -0.000000 -0.000000 0.000000 0.000000 -0.000000 0.000000 0.000000 -0.000000 0.000000 0.000000 0.000000 
